<?xml version="1.0" encoding="utf-8"?>
<!-- Generator: Adobe Illustrator 16.0.0, SVG Export Plug-In . SVG Version: 6.00 Build 0)  -->
<!DOCTYPE svg PUBLIC "-//W3C//DTD SVG 1.1//EN" "http://www.w3.org/Graphics/SVG/1.1/DTD/svg11.dtd">
<svg version="1.1" id="Layer_1" xmlns="http://www.w3.org/2000/svg" xmlns:xlink="http://www.w3.org/1999/xlink" x="0px" y="0px"
	 width="260px" height="260px" viewBox="0 0 260 260" enable-background="new 0 0 260 260" xml:space="preserve">
<g>
	<g>
		<path fill="none" stroke="#75A742" stroke-width="7.1128" stroke-miterlimit="10" d="M204.083,133.874
			c-0.002-12.154-6.37-41.607-41.499-42.566c-16.204,0.433-26.371,6.734-32.596,14.624c-6.254-7.89-16.369-14.191-32.304-14.624
			c-35.725,0.959-42.097,30.422-41.622,42.566c0.674,17.162,6.613,31.368,11.109,42.31c5.787,14.088,16.103,34.471,35.463,34.631
			c13.488-0.103,18.092-15.761,27.354-15.546c10.4,0.239,7.384,16.895,27.764,16.895
			C173.35,212.163,204.092,166.373,204.083,133.874z"/>
	</g>
	<path fill="none" stroke="#75A742" stroke-width="7.1128" stroke-miterlimit="10" d="M128.986,107.899
		c0,0,4.982-17.198,0.015-29.615c-4.027-10.077-21.716-10.902-21.716-10.902"/>
	<path fill="none" stroke="#75A742" stroke-width="7.1128" stroke-miterlimit="10" d="M132.776,79.783
		c0,0-8.222-20.115,18.191-31.946C154.981,77.025,132.776,79.783,132.776,79.783z"/>
</g>
</svg>
